  0
SECTION
  2
BLOCKS
  0
ENDSEC
  0
SECTION
  2
ENTITIES
  0
LINE
  8
0
 10
2
 20
-6
 11
132
 21
-6
  0
LINE
  8
0
 10
132
 20
-6
 11
132
 21
-7
  0
LINE
  8
0
 10
132
 20
-7
 11
134
 21
-7
  0
LINE
  8
0
 10
134
 20
-7
 11
134
 21
-6
  0
LINE
  8
0
 10
134
 20
-6
 11
146.516
 21
-6
  0
LINE
  8
0
 10
146.516
 20
-6
 11
146.516
 21
-4
  0
LINE
  8
0
 10
146.516
 20
-4
 11
134
 21
-4
  0
LINE
  8
0
 10
134
 20
-4
 11
134
 21
18
  0
LINE
  8
0
 10
134
 20
18
 11
146.516
 21
18
  0
LINE
  8
0
 10
146.516
 20
18
 11
146.516
 21
20
  0
LINE
  8
0
 10
146.516
 20
20
 11
134
 21
20
  0
LINE
  8
0
 10
134
 20
20
 11
134
 21
42
  0
LINE
  8
0
 10
134
 20
42
 11
146.516
 21
42
  0
LINE
  8
0
 10
146.516
 20
42
 11
146.516
 21
44
  0
LINE
  8
0
 10
146.516
 20
44
 11
134
 21
44
  0
LINE
  8
0
 10
134
 20
44
 11
134
 21
66
  0
LINE
  8
0
 10
134
 20
66
 11
146.516
 21
66
  0
LINE
  8
0
 10
146.516
 20
66
 11
146.516
 21
68
  0
LINE
  8
0
 10
146.516
 20
68
 11
134
 21
68
  0
LINE
  8
0
 10
134
 20
68
 11
134
 21
90
  0
LINE
  8
0
 10
134
 20
90
 11
146.516
 21
90
  0
LINE
  8
0
 10
146.516
 20
90
 11
146.516
 21
92
  0
LINE
  8
0
 10
146.516
 20
92
 11
134
 21
92
  0
LINE
  8
0
 10
134
 20
92
 11
134
 21
114
  0
LINE
  8
0
 10
134
 20
114
 11
146.516
 21
114
  0
LINE
  8
0
 10
146.516
 20
114
 11
146.516
 21
116
  0
LINE
  8
0
 10
146.516
 20
116
 11
134
 21
116
  0
LINE
  8
0
 10
134
 20
116
 11
134
 21
138
  0
LINE
  8
0
 10
134
 20
138
 11
146.516
 21
138
  0
LINE
  8
0
 10
146.516
 20
138
 11
146.516
 21
140
  0
LINE
  8
0
 10
146.516
 20
140
 11
134
 21
140
  0
LINE
  8
0
 10
134
 20
140
 11
134
 21
162
  0
LINE
  8
0
 10
134
 20
162
 11
146.516
 21
162
  0
LINE
  8
0
 10
146.516
 20
162
 11
146.516
 21
164
  0
LINE
  8
0
 10
146.516
 20
164
 11
134
 21
164
  0
LINE
  8
0
 10
134
 20
164
 11
134
 21
186
  0
LINE
  8
0
 10
134
 20
186
 11
146.516
 21
186
  0
LINE
  8
0
 10
146.516
 20
186
 11
146.516
 21
188
  0
LINE
  8
0
 10
146.516
 20
188
 11
134
 21
188
  0
LINE
  8
0
 10
134
 20
188
 11
134
 21
196
  0
LINE
  8
0
 10
134
 20
196
 11
146.516
 21
196
  0
LINE
  8
0
 10
146.516
 20
196
 11
146.516
 21
198
  0
LINE
  8
0
 10
146.516
 20
198
 11
134
 21
198
  0
LINE
  8
0
 10
134
 20
198
 11
134
 21
199
  0
LINE
  8
0
 10
134
 20
199
 11
132
 21
199
  0
LINE
  8
0
 10
132
 20
199
 11
132
 21
198
  0
LINE
  8
0
 10
132
 20
198
 11
2
 21
198
  0
LINE
  8
0
 10
2
 20
198
 11
2
 21
199
  0
LINE
  8
0
 10
2
 20
199
 11
0
 21
199
  0
LINE
  8
0
 10
0
 20
199
 11
0
 21
-7
  0
LINE
  8
0
 10
0
 20
-7
 11
2
 21
-7
  0
LINE
  8
0
 10
2
 20
-7
 11
2
 21
-6
  0
LINE
  8
0
 10
2
 20
188
 11
2
 21
196
  0
LINE
  8
0
 10
2
 20
196
 11
132
 21
196
  0
LINE
  8
0
 10
132
 20
196
 11
132
 21
188
  0
LINE
  8
0
 10
132
 20
188
 11
2
 21
188
  0
LINE
  8
0
 10
2
 20
164
 11
2
 21
186
  0
LINE
  8
0
 10
2
 20
186
 11
128
 21
186
  0
LINE
  8
0
 10
128
 20
186
 11
128
 21
180
  0
LINE
  8
0
 10
128
 20
180
 11
132
 21
180
  0
LINE
  8
0
 10
132
 20
180
 11
132
 21
164
  0
LINE
  8
0
 10
132
 20
164
 11
2
 21
164
  0
LINE
  8
0
 10
2
 20
140
 11
2
 21
162
  0
LINE
  8
0
 10
2
 20
162
 11
132
 21
162
  0
LINE
  8
0
 10
132
 20
162
 11
132
 21
140
  0
LINE
  8
0
 10
132
 20
140
 11
2
 21
140
  0
LINE
  8
0
 10
2
 20
116
 11
2
 21
138
  0
LINE
  8
0
 10
2
 20
138
 11
132
 21
138
  0
LINE
  8
0
 10
132
 20
138
 11
132
 21
128
  0
LINE
  8
0
 10
132
 20
128
 11
128
 21
128
  0
LINE
  8
0
 10
128
 20
128
 11
128
 21
122
  0
LINE
  8
0
 10
128
 20
122
 11
132
 21
122
  0
LINE
  8
0
 10
132
 20
122
 11
132
 21
116
  0
LINE
  8
0
 10
132
 20
116
 11
2
 21
116
  0
LINE
  8
0
 10
2
 20
92
 11
2
 21
114
  0
LINE
  8
0
 10
2
 20
114
 11
132
 21
114
  0
LINE
  8
0
 10
132
 20
114
 11
132
 21
92
  0
LINE
  8
0
 10
132
 20
92
 11
2
 21
92
  0
LINE
  8
0
 10
2
 20
68
 11
2
 21
90
  0
LINE
  8
0
 10
2
 20
90
 11
132
 21
90
  0
LINE
  8
0
 10
132
 20
90
 11
132
 21
70
  0
LINE
  8
0
 10
132
 20
70
 11
128
 21
70
  0
LINE
  8
0
 10
128
 20
70
 11
128
 21
68
  0
LINE
  8
0
 10
128
 20
68
 11
2
 21
68
  0
LINE
  8
0
 10
2
 20
44
 11
2
 21
66
  0
LINE
  8
0
 10
2
 20
66
 11
128
 21
66
  0
LINE
  8
0
 10
128
 20
66
 11
128
 21
64
  0
LINE
  8
0
 10
128
 20
64
 11
132
 21
64
  0
LINE
  8
0
 10
132
 20
64
 11
132
 21
44
  0
LINE
  8
0
 10
132
 20
44
 11
2
 21
44
  0
LINE
  8
0
 10
2
 20
20
 11
2
 21
42
  0
LINE
  8
0
 10
2
 20
42
 11
132
 21
42
  0
LINE
  8
0
 10
132
 20
42
 11
132
 21
20
  0
LINE
  8
0
 10
132
 20
20
 11
2
 21
20
  0
LINE
  8
0
 10
2
 20
-4
 11
2
 21
18
  0
LINE
  8
0
 10
2
 20
18
 11
132
 21
18
  0
LINE
  8
0
 10
132
 20
18
 11
132
 21
12
  0
LINE
  8
0
 10
132
 20
12
 11
128
 21
12
  0
LINE
  8
0
 10
128
 20
12
 11
128
 21
6
  0
LINE
  8
0
 10
128
 20
6
 11
132
 21
6
  0
LINE
  8
0
 10
132
 20
6
 11
132
 21
-4
  0
LINE
  8
0
 10
132
 20
-4
 11
2
 21
-4
  0
LINE
  8
0
 10
-34
 20
199
 11
-42
 21
199
  0
LINE
  8
0
 10
-42
 20
199
 11
-42
 21
186
  0
LINE
  8
0
 10
-42
 20
186
 11
-130
 21
186
  0
LINE
  8
0
 10
-130
 20
186
 11
-130
 21
192
  0
LINE
  8
0
 10
-130
 20
192
 11
-134
 21
192
  0
LINE
  8
0
 10
-134
 20
192
 11
-134
 21
0
  0
LINE
  8
0
 10
-134
 20
0
 11
-130
 21
0
  0
LINE
  8
0
 10
-130
 20
0
 11
-130
 21
6
  0
LINE
  8
0
 10
-130
 20
6
 11
-42
 21
6
  0
LINE
  8
0
 10
-42
 20
6
 11
-42
 21
-7
  0
LINE
  8
0
 10
-42
 20
-7
 11
-34
 21
-7
  0
LINE
  8
0
 10
-34
 20
-7
 11
-34
 21
199
  0
LINE
  8
0
 10
-130
 20
128
 11
-130
 21
180
  0
LINE
  8
0
 10
-130
 20
180
 11
-42
 21
180
  0
LINE
  8
0
 10
-42
 20
180
 11
-42
 21
128
  0
LINE
  8
0
 10
-42
 20
128
 11
-130
 21
128
  0
LINE
  8
0
 10
-130
 20
70
 11
-130
 21
122
  0
LINE
  8
0
 10
-130
 20
122
 11
-42
 21
122
  0
LINE
  8
0
 10
-42
 20
122
 11
-42
 21
70
  0
LINE
  8
0
 10
-42
 20
70
 11
-130
 21
70
  0
LINE
  8
0
 10
-130
 20
12
 11
-130
 21
64
  0
LINE
  8
0
 10
-130
 20
64
 11
-42
 21
64
  0
LINE
  8
0
 10
-42
 20
64
 11
-42
 21
12
  0
LINE
  8
0
 10
-42
 20
12
 11
-130
 21
12
  0
LINE
  8
0
 10
146.516
 20
-152.165
 11
145.972
 21
-144.184
  0
LINE
  8
0
 10
145.972
 20
-144.184
 11
134
 21
-145
  0
LINE
  8
0
 10
134
 20
-145
 11
134
 21
-50
  0
LINE
  8
0
 10
134
 20
-50
 11
140
 21
-50
  0
LINE
  8
0
 10
140
 20
-50
 11
140
 21
-46
  0
LINE
  8
0
 10
140
 20
-46
 11
0
 21
-46
  0
LINE
  8
0
 10
0
 20
-46
 11
0
 21
-50
  0
LINE
  8
0
 10
0
 20
-50
 11
128
 21
-50
  0
LINE
  8
0
 10
128
 20
-50
 11
128
 21
-145.409
  0
LINE
  8
0
 10
128
 20
-145.409
 11
2
 21
-154
  0
LINE
  8
0
 10
2
 20
-154
 11
2.54419
 21
-161.981
  0
LINE
  8
0
 10
2.54419
 20
-161.981
 11
146.516
 21
-152.165
  0
LINE
  8
0
 10
2
 20
-154
 11
0
 21
-154
  0
LINE
  8
0
 10
0
 20
-154
 11
0
 21
-162
  0
LINE
  8
0
 10
0
 20
-162
 11
2
 21
-162
  0
LINE
  8
0
 10
2
 20
-162
 11
2
 21
-154
  0
ENDSEC
  0
SECTION
  2
OBJECTS
  0
DICTIONARY
  0
ENDSEC
  0
EOF
